<svg xmlns="http://www.w3.org/2000/svg" viewBox="0 0 600 900" fill="none">
<defs><linearGradient id="petal" x1="0" y1="0" x2="1" y2="1"><stop stop-color="#fff"/><stop offset=".5" stop-color="#f1efeb"/><stop offset="1" stop-color="#d8d5ce"/></linearGradient><linearGradient id="stem" x1="0" y1="0" x2="1" y2="1"><stop stop-color="#d5bf96"/><stop offset="1" stop-color="#8e7755"/></linearGradient><filter id="soft"><feGaussianBlur stdDeviation="7"/></filter></defs>
<g opacity=".16" fill="#dbd8d1" filter="url(#soft)"><ellipse cx="82" cy="84" rx="95" ry="74"/><ellipse cx="531" cy="243" rx="82" ry="130"/><ellipse cx="74" cy="743" rx="114" ry="104"/></g>
<g stroke="#eeece7" stroke-width="18" opacity=".68"><path d="M-60 44C129-44 220 82 634-32"/><path d="M-53 77C123-4 262 122 626 13"/><path d="M-45 112C140 32 294 165 619 55"/><path d="M-35 145C171 72 325 210 610 99"/><path d="M-24 177C191 114 352 246 598 144"/><path d="M-13 210C218 154 376 281 589 188"/></g>
<g transform="translate(450 655) rotate(-28)" opacity=".86" stroke="url(#stem)" stroke-width="5" stroke-linecap="round"><path d="M0 235C-12 153 23 83 56 0"/><path d="M29 119C-6 81-48 78-67 99c20 38 40 45 67 26"/><path d="M42 77C68 42 101 40 120 59c-17 37-40 43-72 29"/><g fill="url(#petal)" stroke="#e4e1dc" stroke-width="2"><ellipse cx="50" cy="-1" rx="30" ry="64" transform="rotate(-7 50 -1)"/><ellipse cx="20" cy="8" rx="28" ry="58" transform="rotate(-52 20 8)"/><ellipse cx="84" cy="10" rx="27" ry="59" transform="rotate(47 84 10)"/><ellipse cx="26" cy="35" rx="29" ry="52" transform="rotate(-89 26 35)"/><ellipse cx="73" cy="38" rx="29" ry="50" transform="rotate(83 73 38)"/></g><circle cx="51" cy="23" r="13" fill="#d4c39e" stroke="none"/></g>
<g fill="#fff" opacity=".35"><path d="M498 452c-18-22-14-45 4-49 16-4 21 18 9 37 25-27 48-21 43-3-4 14-22 17-43 16 25 9 34 30 21 38-16 9-29-12-34-39z"/><path d="M74 375c-18-22-14-45 4-49 16-4 21 18 9 37 25-27 48-21 43-3-4 14-22 17-43 16 25 9 34 30 21 38-16 9-29-12-34-39z"/></g>
</svg>
